<?xml version="1.0" encoding="utf-8"?>
<!-- Generator: Adobe Illustrator 28.0.0, SVG Export Plug-In . SVG Version: 6.00 Build 0)  -->
<svg version="1.1" id="Layer_2_00000107565340982447923680000010331614977636374445_"
	 xmlns="http://www.w3.org/2000/svg" xmlns:xlink="http://www.w3.org/1999/xlink" x="0px" y="0px" viewBox="0 0 35.4 35.4"
	 style="enable-background:new 0 0 35.4 35.4;" xml:space="preserve">
<g id="ELEMENTS">
	<path d="M17.7,0C7.9,0,0,7.9,0,17.7s7.9,17.7,17.7,17.7s17.7-7.9,17.7-17.7S27.5,0,17.7,0z M8.7,8.6h18c0.4,0,0.8,0.1,1.1,0.2
		C27.7,8.9,27.7,9,27.6,9l-8.1,9.1c-0.5,0.5-1.1,0.8-1.8,0.8s-1.4-0.3-1.8-0.8L7.7,8.9l0,0c0,0,0,0,0,0C7.9,8.7,8.3,8.6,8.7,8.6z
		 M29.5,24c0,1.5-1.2,2.8-2.8,2.8h-18c-1.5,0-2.8-1.2-2.8-2.8V11.4c0-0.5,0.1-1,0.4-1.4c0,0,0,0.1,0,0.1l8.2,9.3
		c0.8,0.9,1.9,1.4,3.2,1.4s2.4-0.5,3.2-1.4l8.1-9.1C29,10.1,29,10,29.1,9.9l0,0c0.3,0.4,0.4,0.9,0.4,1.5V24z"/>
</g>
</svg>
