<?xml version="1.0" encoding="UTF-8"?><svg id="Layer_2" xmlns="http://www.w3.org/2000/svg" viewBox="0 0 35.38 35.39"><defs><style>.cls-1,.cls-2{stroke-width:0px;}.cls-2{fill:#fff;fill-rule:evenodd;}</style></defs><g id="ELEMENTS"><path class="cls-1" d="m35.38,17.7c0,9.77-7.92,17.69-17.69,17.69S0,27.47,0,17.7,7.92,0,17.69,0s17.69,7.93,17.69,17.7Z"/><path class="cls-2" d="m25.41,20.64c-.86-.51-1.97-1.09-2.98-.67-.78.32-1.27,1.53-1.77,2.15-.26.32-.57.37-.96.21-2.91-1.16-5.14-3.1-6.74-5.78-.27-.42-.22-.74.1-1.13.49-.57,1.09-1.22,1.23-1.99.13-.77-.23-1.67-.55-2.35-.41-.88-.86-2.12-1.74-2.62-.81-.46-1.87-.2-2.59.38-1.24,1.01-1.84,2.59-1.82,4.16,0,.45.06.89.16,1.32.25,1.03.73,2,1.27,2.92.41.69.85,1.36,1.32,2.01,1.56,2.11,3.49,3.95,5.73,5.32,1.12.69,2.33,1.29,3.58,1.7,1.4.46,2.65.94,4.16.66,1.58-.3,3.15-1.28,3.77-2.81.19-.45.28-.96.18-1.43-.22-.99-1.55-1.57-2.35-2.05Z"/></g></svg>