<?xml version="1.0" encoding="utf-8"?>
<!-- Generator: Adobe Illustrator 28.0.0, SVG Export Plug-In . SVG Version: 6.00 Build 0)  -->
<svg version="1.1" id="Layer_2_00000177443028197770406150000015062731087742300581_"
	 xmlns="http://www.w3.org/2000/svg" xmlns:xlink="http://www.w3.org/1999/xlink" x="0px" y="0px" viewBox="0 0 35.4 35.4"
	 style="enable-background:new 0 0 35.4 35.4;" xml:space="preserve">
<g id="ELEMENTS">
	<path d="M17.7,0C7.9,0,0,7.9,0,17.7s7.9,17.7,17.7,17.7s17.7-7.9,17.7-17.7S27.5,0,17.7,0z M29.5,16.8h-5.7
		C23.7,12,22.3,8,20.4,6.2C25.3,7.3,29.1,11.6,29.5,16.8z M17.7,6.7L17.7,6.7c2,0,4.2,4.1,4.4,10.1h-8.8
		C13.5,10.8,15.7,6.7,17.7,6.7z M15,6.2C13,8,11.7,12,11.5,16.8H5.9C6.3,11.6,10,7.3,15,6.2z M5.9,18.6h5.7
		c0.1,4.8,1.5,8.8,3.5,10.7C10,28.1,6.3,23.8,5.9,18.6z M17.7,28.7c-2,0-4.2-4.1-4.4-10.1h8.8C21.9,24.5,19.7,28.7,17.7,28.7z
		 M20.4,29.2c2-1.9,3.3-5.8,3.5-10.7h5.7C29.1,23.8,25.3,28.1,20.4,29.2z"/>
</g>
</svg>
