<svg width="323" height="314" viewBox="0 0 323 314" fill="none" xmlns="http://www.w3.org/2000/svg">
<path d="M57.0299 0H265.021C296.556 0 322.051 25.4957 322.051 57.0299V256.97C322.051 288.504 296.556 314 265.021 314H57.0299C25.4957 314 0 288.504 0 256.97V57.0299C0 25.4957 25.4957 0 57.0299 0Z" fill="black"/>
<path d="M155.658 187.863H105.74L95.542 219.397C95.2736 220.605 94.2001 221.41 92.9924 221.276H67.765C66.289 221.276 65.8864 220.471 66.289 218.861L109.498 94.4684C109.9 93.1265 110.303 91.6505 110.839 90.0402C111.376 87.2223 111.645 84.2701 111.645 81.318C111.51 80.647 112.047 79.9761 112.718 79.8419H147.473C148.546 79.8419 149.083 80.2445 149.217 80.9154L198.196 219.129C198.598 220.605 198.196 221.276 196.854 221.276H168.809C167.869 221.41 166.93 220.739 166.662 219.8L155.658 187.863ZM113.523 160.623H147.607C146.802 157.805 145.728 154.45 144.521 150.962C143.313 147.338 142.105 143.447 140.898 139.421C139.556 135.262 138.348 131.236 137.006 127.076C135.664 122.916 134.456 119.025 133.383 115.133C132.309 111.376 131.37 107.887 130.431 104.667H130.162C128.955 110.437 127.479 116.207 125.6 121.977C123.587 128.418 121.574 135.127 119.427 141.837C117.549 148.68 115.536 154.987 113.523 160.623ZM228.12 103.325C223.692 103.459 219.398 101.715 216.177 98.6282C213.091 95.2735 211.48 90.8453 211.615 86.2829C211.48 81.7205 213.225 77.4265 216.445 74.3402C219.666 71.2539 223.96 69.6436 228.388 69.6436C233.621 69.6436 237.647 71.2539 240.599 74.3402C243.551 77.5607 245.162 81.8547 245.027 86.2829C245.162 90.8453 243.551 95.2735 240.331 98.6282C237.245 101.849 232.682 103.593 228.12 103.325ZM213.091 219.8V116.475C213.091 115.133 213.627 114.597 214.835 114.597H241.404C242.612 114.597 243.149 115.268 243.149 116.475V219.8C243.149 221.276 242.612 221.947 241.404 221.947H215.104C213.762 221.947 213.091 221.142 213.091 219.8Z" fill="white"/>
</svg>
