<svg width="323" height="314" viewBox="0 0 323 314" fill="none" xmlns="http://www.w3.org/2000/svg">
<path d="M57.0299 0H265.021C296.556 0 322.051 25.4957 322.051 57.0299V256.97C322.051 288.504 296.556 314 265.021 314H57.0299C25.4957 314 0 288.504 0 256.97V57.0299C0 25.4957 25.4957 0 57.0299 0Z" fill="black"/>
<path d="M72.4612 220.203V82.1231C72.4612 81.1838 72.8638 80.647 73.8031 80.647C76.0843 80.647 78.2313 80.647 81.3176 80.5129C84.5381 80.3787 87.8928 80.3787 91.5159 80.2445C95.139 80.1103 99.0305 80.1103 103.19 79.9761C107.35 79.8419 111.376 79.8419 115.401 79.8419C126.405 79.8419 135.53 81.1838 143.044 84.0017C149.754 86.2829 155.926 90.0402 161.025 95.0052C165.319 99.2992 168.674 104.533 170.821 110.303C172.834 115.938 173.907 121.709 173.907 127.747C173.907 139.287 171.224 148.815 165.856 156.329C160.489 163.844 152.974 169.48 144.252 172.7C135.127 176.055 125.063 177.262 114.06 177.262C110.839 177.262 108.692 177.262 107.35 177.128C106.008 176.994 104.13 176.994 101.58 176.994V220.068C101.714 221.008 101.043 221.813 100.104 221.947C99.9698 221.947 99.8356 221.947 99.5672 221.947H74.0715C72.998 221.947 72.4612 221.41 72.4612 220.203ZM101.714 106.545V151.633C103.593 151.767 105.337 151.901 106.948 151.901H114.06C119.293 151.901 124.526 151.096 129.491 149.486C133.785 148.278 137.542 145.728 140.495 142.374C143.313 139.019 144.654 134.456 144.654 128.552C144.789 124.392 143.715 120.233 141.568 116.609C139.287 113.121 136.066 110.437 132.175 108.961C127.21 106.948 121.842 106.143 116.341 106.277C112.852 106.277 109.766 106.277 107.216 106.411C104.532 106.277 102.654 106.411 101.714 106.545Z" fill="white"/>
<path d="M257.64 143.447C253.615 141.3 249.321 139.824 244.758 138.885C239.793 137.811 234.828 137.14 229.729 137.14C227.046 137.006 224.228 137.409 221.678 138.08C219.934 138.482 218.458 139.421 217.518 140.763C216.847 141.837 216.445 143.179 216.445 144.386C216.445 145.594 216.981 146.802 217.787 147.875C218.994 149.351 220.605 150.559 222.349 151.498C225.435 153.109 228.656 154.585 231.876 155.927C239.123 158.342 246.1 161.697 252.541 165.722C256.969 168.54 260.593 172.298 263.142 176.86C265.289 181.154 266.363 185.851 266.228 190.681C266.363 196.988 264.484 203.295 260.995 208.528C257.238 213.896 252.005 218.056 245.966 220.471C239.391 223.289 231.34 224.765 221.678 224.765C215.505 224.765 209.467 224.228 203.428 223.021C198.732 222.215 194.035 220.739 189.741 218.727C188.802 218.19 188.131 217.251 188.265 216.177V192.828C188.265 192.426 188.399 191.889 188.802 191.621C189.205 191.352 189.607 191.486 190.01 191.755C195.243 194.841 200.745 196.988 206.649 198.33C211.748 199.672 217.116 200.343 222.483 200.343C227.582 200.343 231.205 199.672 233.621 198.464C235.768 197.525 237.244 195.244 237.244 192.828C237.244 190.95 236.17 189.205 234.023 187.461C231.876 185.716 227.448 183.704 220.873 181.154C214.029 178.739 207.722 175.518 201.818 171.492C197.658 168.54 194.17 164.649 191.62 160.086C189.473 155.792 188.399 151.096 188.534 146.399C188.534 140.629 190.144 135.127 193.096 130.162C196.451 124.795 201.416 120.501 207.186 117.817C213.493 114.597 221.41 113.121 230.937 113.121C236.439 113.121 242.075 113.523 247.576 114.328C251.602 114.865 255.493 115.939 259.117 117.415C259.653 117.549 260.19 118.086 260.458 118.622C260.593 119.159 260.727 119.696 260.727 120.233V142.105C260.727 142.642 260.458 143.179 260.056 143.447C258.848 143.715 258.177 143.715 257.64 143.447Z" fill="white"/>
</svg>
