<?xml version="1.0" encoding="utf-8"?>
<!-- Generator: Adobe Illustrator 27.5.0, SVG Export Plug-In . SVG Version: 6.00 Build 0)  -->
<svg version="1.1" id="Layer_1" xmlns="http://www.w3.org/2000/svg" xmlns:xlink="http://www.w3.org/1999/xlink" x="0px" y="0px"
	 viewBox="0 0 4000 4000" style="enable-background:new 0 0 4000 4000;" xml:space="preserve">
<g>
	<path style="fill:#020202;" d="M3496.616,2706.914l-3.364-443.255l-9.276-859.458l-2.924-274.15
		c-0.52-34.887,2.522-71.907-0.826-106.441c-1.293-13.342-4.601-21.519-14.605-30.973c-30.229-28.57-85.433-19.593-123.855-18.882
		l-2093.427,23.24l-486.852,3.743l-132.308,0.072c-21.962-0.036-46.508-2.252-68.098,0.909
		c-11.397,1.666-23.259,8.443-31.168,16.713c-11.977,12.522-15.119,25.93-16.289,42.557c-2.858,40.628-1.523,82.329-1.938,123.121
		l-2.113,212.382l-3.513,579.237l-3.41,669.255l-1.492,220.777c-0.091,33.06-1.299,66.627,0.104,99.641
		c0.798,18.79,5.359,32.049,19.697,44.904c29.416,26.375,100.532,15.781,139.305,15.452l1905.147-13.371l578.819-3.44l188.068-1.484
		c36.994-0.128,75.341,1.903,112.143-0.701c15.488-1.096,25.604-4.438,36.954-15.712c8.43-8.378,15.406-19.998,16.62-32
		c2.65-26.236,0.738-54.427,0.615-80.814C3498.278,2821.123,3497.606,2764.016,3496.616,2706.914z M619.074,1068.609
		c36.914-2.193,74.368-0.632,111.358-0.451l181.143,0.365l528.211-2.08l1498.441-11.999l262.395,0.955
		c58.006,0.27,116.409-0.83,174.358,1.517c0.902,42.909,2.064,87.731-0.958,130.488c-67.687,3.667-141.404,0.563-209.736,1.004
		l-454.167,2.439l-1102.589,7.482c-184.754,1.287-369.841-0.724-554.529,3.463l-434.912,3.473
		C617.061,1160.139,617.069,1113.688,619.074,1068.609z M3464.66,2949.463c-1.201,13.48-5.336,16.271-15.234,24.666
		c-74.909,2.041-150.226,1.406-225.185,1.797l-439.729,2.367l-2066.365,15.501l-99.995,0.467
		c-17.548,0.069-37.306,1.738-54.582-1.126c-8.295-1.376-18.704-3.911-24.654-10.307c-2.57-2.762-2.235-4.908-2.675-8.437
		c-3.827-30.729-2.1-62.653-2.054-93.587c-0.163-50.135,0.224-100.265,1.162-150.391c2.002-109.993,1.863-220.233,2.23-330.253
		l4.257-805.669l0.741-202.691c0.033-38.422-0.867-77.098,0.689-115.481c97.067-4.464,194.784-2.669,291.972-4.033l667.033-6.679
		l1775.775-13.635c57.287-0.759,114.574-0.911,171.863-0.454c4.203,154.239,3.983,308.803,5.596,463.108l6.537,708.55l2.068,368.511
		c0.068,31.983,0.342,63.966,0.823,95.947C3465.203,2908.062,3466.473,2929.1,3464.66,2949.463z"/>
	<path style="fill:#020202;" d="M2732.662,1156.083l1.916,4.915c9.458,4.072,216.942-1.356,242.927-2.894
		c-52.166-2.159-104.341-2.14-156.54-2.39C2791.921,1155.573,2761.554,1153.621,2732.662,1156.083z"/>
	<path style="fill:#020202;" d="M2620.855,1136.076c199.274-2.875,398.518-1.42,597.73,4.365l1.725-5.359l-1.718-2.406
		c-21.943-3.479-47.103-0.79-69.418-0.573c-42.072,0.408-84.144,0.504-126.215,0.286l-293.453-3.137
		c-44.608-0.385-89.946-2.492-134.508-0.875l-1.327,4.25C2599.129,1137.991,2613.385,1136.131,2620.855,1136.076z"/>
	<path style="fill:#020202;" d="M1860.021,1150.961c9.368,4.555,102.152-0.165,119.813-0.06c5.718-1.899,9.395-3.522,12.315-9.052
		c1.61-3.042,2.992-7.245,2.255-10.679c-0.902-4.197-3.348-7.035-7.045-9.013c-10.735-5.744-102.731-1.87-121.903-1.962
		c-5.889,1.129-8.085,1.096-12.713,5.099c-2.456,5.781-3.697,10.366-1.271,16.449
		C1853.124,1145.879,1855.998,1149.002,1860.021,1150.961z"/>
	<path style="fill:#020202;" d="M1436.856,1151.912c12.068,6.939,71.663,2.232,89.439,2.179c17.993,0.033,78.385,4.507,89.735-7.114
		c2.959-3.029,4.674-6.311,4.477-10.653c-0.201-4.385-2.502-7.475-5.849-10.079c-12.759-9.918-73.911-4.958-92.303-4.381
		c-17.433,0.415-76.377-2.156-88.932,4.79c-3.364,4.592-5.122,9.747-3.891,15.498
		C1430.568,1147.011,1432.57,1149.447,1436.856,1151.912z"/>
	<path style="fill:#020202;" d="M989.545,1144.486c0.255,1.723,0.594,3.429,1.017,5.119c0.424,1.69,0.93,3.354,1.521,4.994
		c0.588,1.639,1.258,3.246,2.008,4.819c0.702,1.466,1.475,2.892,2.318,4.279c0.843,1.389,1.752,2.733,2.729,4.033
		c0.977,1.297,2.015,2.543,3.114,3.74c1.099,1.196,2.255,2.335,3.466,3.417c1.211,1.08,2.474,2.098,3.789,3.055
		c1.312,0.957,2.669,1.845,4.069,2.666c1.402,0.823,2.841,1.574,4.316,2.255c1.475,0.678,2.98,1.283,4.516,1.814
		c10.474,3.641,19.794,3.726,30.617,2.048c15.152-5.251,27.467-13.036,34.735-27.911c6.143-12.571,7.071-27.918,1.89-40.974
		c-5.425-13.667-16.762-24.495-30.314-30.008c-10.926-4.447-21.071-3.76-32.553-2.541c-15.939,6.943-28.356,16.551-34.587,33.488
		c-0.599,1.635-1.116,3.296-1.55,4.984c-0.434,1.688-0.784,3.393-1.05,5.115c-0.263,1.72-0.441,3.451-0.533,5.191
		s-0.098,3.481-0.016,5.221C989.126,1141.029,989.293,1142.761,989.545,1144.486z"/>
	<path style="fill:#020202;" d="M860.143,1181.437c10.172,5.609,19.537,7.094,30.989,7.074c16.232-3.499,28.823-9.882,37.899-24.527
		c7.601-12.265,10.748-28.023,7.301-42.145c-0.391-1.563-0.858-3.103-1.402-4.622c-0.544-1.516-1.162-3.002-1.853-4.457
		c-0.689-1.457-1.45-2.876-2.281-4.256c-0.83-1.38-1.726-2.717-2.69-4.01c-0.961-1.292-1.985-2.535-3.071-3.726
		c-1.086-1.192-2.227-2.326-3.423-3.404c-1.198-1.079-2.446-2.097-3.743-3.052c-1.299-0.955-2.641-1.843-4.026-2.666
		c-10.935-6.564-22.273-7.887-34.729-8.035c-15.692,3.322-28.731,10.567-37.675,24.264c-7.755,11.88-10.866,27.062-7.318,40.897
		C837.716,1162.789,847.559,1174.498,860.143,1181.437z"/>
	<path style="fill:#020202;" d="M677.904,1154.753c0.573,1.69,1.23,3.346,1.972,4.968c0.742,1.624,1.564,3.205,2.466,4.743
		c0.904,1.541,1.883,3.031,2.936,4.47c1.053,1.44,2.177,2.822,3.371,4.148c1.194,1.328,2.452,2.591,3.776,3.789
		c1.321,1.198,2.7,2.326,4.138,3.384c1.438,1.058,2.924,2.04,4.46,2.946c11.972,7.173,22.599,7.937,36.243,7.318
		c17.197-5.596,32.059-13.842,40.213-30.92c6.64-13.901,6.534-30.502,0.823-44.69c-0.658-1.626-1.398-3.216-2.219-4.77
		c-0.821-1.551-1.718-3.058-2.693-4.52c-0.974-1.46-2.019-2.867-3.134-4.224c-1.117-1.354-2.3-2.648-3.549-3.881
		c-1.249-1.236-2.556-2.405-3.921-3.506c-1.367-1.102-2.787-2.132-4.259-3.091c-1.47-0.956-2.986-1.837-4.546-2.64
		c-1.56-0.806-3.158-1.529-4.793-2.169c-8.23-3.309-16.667-4.286-25.479-4.168c-16.064,3.121-28.8,9.148-38.35,22.997
		c-8.855,12.842-12.367,29.403-8.914,44.67C676.845,1151.349,677.331,1153.064,677.904,1154.753z"/>
	<path style="fill:#020202;" d="M3412.419,1748.623c2.238-36.2,6.679-222.679-0.659-246.245c-3.96,31.904-2.607,65.428-2.739,97.606
		C3408.823,1648.906,3407.619,1699.92,3412.419,1748.623z"/>
	<path style="fill:#020202;" d="M3385.438,2543.471l2.357,1.863c6.143-15.521-2.264-191.371-3.746-219.838
		C3383.131,2359.096,3377.331,2523.306,3385.438,2543.471z"/>
	<path style="fill:#020202;" d="M3371.6,1567.046l-0.236-0.472c-0.063,0.649-0.126,1.26-0.188,1.811L3371.6,1567.046z"/>
	<path style="fill:#020202;" d="M3371.833,1320.968c-7.1,53.591-3.249,126.291-2.149,181.854c0.326,16.38,3.795,46.922,0.724,61.843
		l0.956,1.908C3375.014,1529.344,3381.126,1335.864,3371.833,1320.968z"/>
	<path style="fill:#020202;" d="M3412.046,1848.151c-3.535,43.92,0.737,87.859,1.05,131.831
		c0.204,28.721-5.56,133.987,2.304,156.013c3.602-30.035,3.131-277.913-2.047-286.396
		C3412.932,1848.908,3412.563,1848.612,3412.046,1848.151z"/>
	<path style="fill:#020202;" d="M616.524,1954.876c-1.76-2.278-1.999-2.584-4.797-3.753c-4.653,17.088-3.958,290.369,0.502,300.673
		c3.038,1.113,1.773,0.984,3.673,1.027c1.378-5.191,2.067-10.198,2.239-15.551c2.044-63.516-0.604-127.759-0.821-191.338
		C617.242,2022.572,621.069,1975.236,616.524,1954.876z"/>
	<path style="fill:#020202;" d="M616.375,1327.285c-6.051,27.464-3.259,58.621-3.257,86.667l-0.351,118.117l-0.842,207.494
		c-0.204,38.481-2.454,78.023-0.037,116.386l1.702,2.456l1.988,0.25c3.692-10.722,3.359-22.816,3.709-34.061
		c1.389-44.552,4.142-485.874,1.216-493.689C619.74,1328.865,618.116,1328.401,616.375,1327.285z"/>
	<path style="fill:#020202;" d="M577.345,1528.119l-3.911-1.817c-3.71,20.534-1.975,44.213-2.272,65.099
		c-0.609,48.822-0.932,97.647-0.968,146.473l-0.349,223.976c-0.269,61.975-1.438,124.089,1.121,186.025
		c0.341,8.256-0.011,18.609,4.702,25.653c7.113-26.559,2.534-66.367,2.113-94.574l-1.176-109.401
		c-0.073-111.297,0.479-222.592,1.656-333.887C578.491,1617.615,582.547,1539.647,577.345,1528.119z"/>
	<path style="fill:#020202;" d="M2757.469,2713.751c14.385,4.191,112.9,2.015,137.055,2.133
		c105.263,0.51,210.789,2.986,316.026,1.606c5.158-3.763,8.608-7.146,9.589-13.737c0.675-4.54-0.287-9.23-3.15-12.887
		c-5.339-6.821-15.521-6.054-23.402-6.182c-64.684-1.037-129.438,0.171-194.139-0.609c-52.094-0.656-104.191-0.906-156.29-0.75
		c-28.158-0.013-56.593-0.83-84.725,0.326c-5.066,2.706-8.615,4.266-10.32,10.277c-1.112,3.917-1.195,8.144,0.586,11.903
		C2750.388,2709.386,2753.664,2712.642,2757.469,2713.751z"/>
	<path style="fill:#020202;" d="M2140.62,2713.6c32.655,2.084,66.136,0.355,98.9,0.421l198.54,0.283l132.795,0.408
		c24.972,0.257,51.283,2.367,76.091,0.224c5.188-3.697,9.958-7.927,11.133-14.563c0.705-3.993-0.573-7.855-3.371-10.755
		c-3.944-4.098-9.958-5.981-15.495-6.422c-20.436-1.633-41.967-0.089-62.568-0.359c-50.933-0.753-101.869-1.144-152.807-1.172
		l-190.031-0.428c-37.738-0.082-75.676-0.958-113.39,0.346c-5.52,4.029-11.409,9.5-12.275,16.683
		c-0.29,2.423,0.941,4.832,2.581,6.577C2117.211,2711.737,2131.702,2713.03,2140.62,2713.6z"/>
	<path style="fill:#020202;" d="M1958.647,2700.512c-0.332-5.958-1.56-11.897-6.245-15.942c-3.367-2.91-10.642-2.778-15.067-3.006
		c-51.718-2.653-104.394-0.48-156.23-0.872c-102.59-0.771-205.608-2.028-308.181-0.201c-5.814,1.768-10.455,3.404-13.029,9.569
		c-1.599,3.832-1.57,8.536,0.214,12.295c2.12,4.47,6.561,7.729,11.321,8.872c20.867,5.007,89.732,1.392,117.202,1.475l174.408,1.363
		c53.558,0.066,107.343-0.965,160.869,0.198l-0.128,29.149l-320.183,0.695l-87.855-0.049c-17.167-0.112-35.012-1.241-52.107,0.165
		c-7.117,0.586-19.869,2.288-25.317,7.489c-3.325,3.177-3.183,4.319-3.209,8.575c2.61,5.382,7.502,12.371,13.608,13.944
		c2.894,0.744,5.619,0.998,8.582,1.08c117.064-0.846,234.178,0.691,351.245,1.109c24.133,0.089,126.222,3.377,142.405-1.923
		c11.67-13.546,6.817-35.907,6.939-52.646C1957.936,2714.752,1959.042,2707.599,1958.647,2700.512z"/>
	<path style="fill:#020202;" d="M1166.336,2710.716l111.455,0.642c19.665,0.089,39.926,1.119,59.539-0.092
		c8.266-0.51,16.963-1.531,23.819-6.468c2.41-5.178,4.642-10.083,1.887-15.778c-2.581-5.336-8.506-8.611-14.023-10.014
		c-14.481-3.684-89.179-0.971-110.994-1.086l-362.911-0.605c-14.51,0.01-75.863-3.74-86.002,3.239
		c-9.935,15.007-11.923,57.492-7.91,75.429c1.448,6.478,4.329,12.582,10.231,16.081c1.969,1.169,4.088,1.955,6.294,2.554
		c4.714,1.284,568.627,0.721,571.574-0.161c4.53-1.356,7.535-4.279,9.836-8.374c1.939-3.45,2.426-8.503,1.099-12.203
		c-1.488-4.155-4.234-6.376-8.18-8.009c-12.779-5.29-374.729-3.104-417.167-3.082c-46.869,0.185-93.916,1.34-140.769,0.534
		l0.171-33.626L1166.336,2710.716z"/>
	<path style="fill:#020202;" d="M1478.985,1881.827c11.017,8.983,36.898,6.353,50.322,6.146l1669.584-11.531
		c8.72,0.023,21.018,0.076,27.358-6.992c2.825-3.147,3.805-7.733,3.384-11.851c-0.471-4.605-2.449-7.729-6.126-10.442
		c-10.557-7.795-36.839-2.983-49.7-2.663c-557.974,6.573-1115.969,10.071-1673.985,10.495c-7.078,0.026-14.356-1.159-19.587,4.648
		c-2.745,3.048-6.38,8.845-6.33,13C1473.961,1876.872,1475.841,1879.259,1478.985,1881.827z"/>
	<path style="fill:#020202;" d="M1948.696,2822.79c-10.247-6.956-130.107-2.637-151.382-2.259l-266.931,1.383
		c-42.014,0.145-85.041-1.797-126.89,0.428c-4.533,0.244-10.34,0.583-13.836,3.805c-3.993,3.677-6.847,10.675-6.169,16.14
		c0.431,3.463,1.426,5.033,3.433,7.762c5.445,3.341,12.766,3.578,19.053,3.947c49.4,2.894,100.302,0.333,149.834,0.217
		c121.933-0.283,244.099-2.689,365.999-1.425l-0.049,32.49l-714.801,3.114c-130.478,0.84-261.388,3.779-391.833,2.127
		c0.11-11.166,0.379-22.328,0.806-33.488l208.08-0.421c54.927-0.511,109.856-0.745,164.786-0.701
		c28.902-0.039,58.41,1.129,87.247-0.405c6.577-0.352,18.362-0.662,23.678-4.434c3.677-2.61,5.366-9.747,5.096-13.882
		c-0.27-4.062-1.968-7.63-5.092-10.247c-4.273-3.582-11.761-3.644-17.108-3.881c-39.69-1.758-80.067-0.178-119.846-0.102
		c-75.888-0.07-151.773,0.338-227.656,1.225c-26.49,0.452-52.982,0.698-79.475,0.737c-18.201-0.003-38.353-1.725-56.244,1.254
		c-4.543,0.757-9.757,1.873-12.706,5.761c-7.173,9.454-7.222,65.975-4.309,78.29c0.938,3.963,2.285,7.509,5.961,9.639
		c6.525,3.782,16.927,3.976,24.346,4.023c99.598,0.622,199.347-1.422,298.957-2.127l517.637-2.735l195.709-0.491
		c27.283-0.056,105.365,3.769,125.784-3.173c2.383-2.861,4.197-5.399,4.869-9.155c2.923-16.396,3.519-45.49,2.294-62.11
		C1957.383,2836.523,1955.421,2827.356,1948.696,2822.79z"/>
	<path style="fill:#020202;" d="M1937.724,2549.331c-34.989-0.81-70.133,0.362-105.141,0.28l-275.408-0.02l-126.432-0.267
		c-22.888-0.085-47.126-1.82-69.82,1.014c-4.823,4.536-8.226,8.312-8.318,15.373c-0.063,4.845,1.689,8.417,5.228,11.719
		c4.187,3.907,9.635,4.948,15.113,5.408c21.186,1.778,43.488,0.533,64.793,0.563l119.51,0.244l372.573,0.83
		c-0.132,9.836-0.046,19.728-0.441,29.554l-1113.811-1.689l0.122-30.054l300.317,0.092c28.106,0.02,56.231-0.257,84.337,0.046
		c14.422,0.155,29.745,1.623,44.084,0.504c6.949-0.543,14.998-2.057,20.258-7.021c3.364-3.177,5.695-8.302,5.201-12.957
		c-0.477-4.483-3.009-7.259-6.623-9.635c-14.257-9.369-67.759-4.625-85.802-4.382l-258.626,0.738
		c-38.353,0.105-81.944-2.212-119.658-0.059c-4.385,0.25-8.263,0.757-11.916,3.344c-7.703,13.628-9.056,62.66-4.898,78.421
		c1.139,4.309,2.396,7.15,5.619,10.353c21.621,6.376,79.047,1.721,104.17,1.751c62.452,0.689,124.906,1.047,187.361,1.073
		l513.921,0.74c111.558,0.966,223.117,1.349,334.677,1.149c7.729-0.066,20.821,0.04,27.688-3.453
		c4.204-2.137,5.517-7.525,6.373-11.844c2.581-13.016,5.925-65.873-2.351-76.318
		C1955.191,2548.982,1944.509,2549.486,1937.724,2549.331z"/>
	<path style="fill:#020202;" d="M3210.879,2559.506c-42.84-4.487-100.631-1.537-144.561-1.787l-287.716-2.123l-415.58-3.404
		l-159.272-1.35c-26.644-0.227-53.828-1.814-80.422-0.563c-5.438,2.729-8.194,4.082-10.057,10.366
		c-4.164,14.036-6.554,72.805,0.086,84.228c5.583,4.902,10.382,5.448,17.42,5.889c45.875,2.861,93.093,0.803,139.113,1.007
		l235.892,1.837l702.227,3.223c6.501-4.24,11.06-8.246,12.581-16.202c2.571-13.474,4.681-67.41-3.091-77.618
		C3215.547,2560.448,3214.105,2559.845,3210.879,2559.506z M3186.375,2623.66l-1042.556-4.938
		c-0.662-11.393-0.441-22.753-0.293-34.159c156.263-2.969,312.685,2.782,468.928,4.237l574.122,2.729
		C3186.757,2602.228,3186.48,2612.962,3186.375,2623.66z"/>
	<path style="fill:#020202;" d="M3216.663,1898.516c-10.508-3.203-91.964-0.326-109.763,0.227
		c-242.292,5.053-484.794,5.78-727.129,7.871l-158.637,1.346c-25.712,0.049-51.576-1.192-77.266-0.53
		c-4.813,0.125-10.55,0.076-14.431,3.407c-4,3.436-6.323,11.64-5.662,16.821c0.533,4.2,2.44,6.729,5.958,8.954
		c4.727,2.992,11.623,3.944,17.088,4.194c29.156,1.337,59.569-1.257,88.843-1.695l164.783-1.343l521.354-4.619
		c90.245-0.853,180.856-4.464,271.069-2.324l-0.003,29.857l-1437.497,8.246c-83.623,0.389-167.88,2.68-251.453,0.333l-0.003-26.088
		l369.86-2.479l123.96-0.441c20.502-0.059,41.981,1.274,62.374-0.484c5.043-0.438,9.698-1.906,13.345-5.57
		c3.042-3.052,5.181-7.091,5.264-11.469c0.079-4.316-1.844-7.785-4.938-10.689c-4.125-3.868-11.14-4.092-16.473-4.23
		c-36.513-0.935-73.651,1.195-110.234,1.412l-237.624,0.609l-144.847,0.372c-25.008,0.095-52.063-1.804-76.775,1.392
		c-5.264,0.681-8.868,0.616-12.153,5.263c-5.655,8.009-5.635,62.545-2.489,72.634c1.172,3.756,3.137,7.295,6.715,9.191
		c5.208,2.759,12.871,2.66,18.681,2.768c127.022,2.396,254.604-0.747,381.672-1.195l865.06-5.004
		c48.308-0.283,458.845,2.782,472.108-2.62c4-1.63,6.373-5.705,7.808-9.619c5.892-16.077,6.672-63.016-1.07-78.188
		C3222.454,1901.485,3220.179,1899.586,3216.663,1898.516z"/>
	<path style="fill:#020202;" d="M3205.073,2747.18c-18.421-1.62-37.484-0.872-55.984-0.912l-100.286-0.052l-276.543-2.686
		c-147.404-1.999-294.814-2.848-442.231-2.548l-131.851-0.29c-25.877-0.079-52.106-1.08-77.924,0.369
		c-7.584,5.981-8.792,10.889-9.849,20.251c-1.84,16.305-6.36,65.258,4.688,77.625c4.362,4.882,17.167,3.536,23.431,3.68
		c46.682,1.063,93.475-0.171,140.176,0.352c192.818,2.126,385.64,3.171,578.467,3.134l243.776,1.432
		c34.979,0.043,72.173,2.601,106.916-0.385c6.446-4.737,9.033-7.973,10.195-15.985c2.499-17.243,5.734-66.317-5.165-79.758
		C3210.606,2748.592,3208.779,2747.502,3205.073,2747.18z M3184.677,2816.045c-22.928,0.343-46.056-1.119-69.037-1.234
		l-228.055-1.379l-746.864-3.223c-0.03-12.321,0.207-24.369,1.438-36.632c45.233-1.363,90.887-0.092,136.157-0.026
		c90.257-0.057,180.513,0.387,270.766,1.333l635.817,3.532C3185.312,2790.925,3184.844,2803.53,3184.677,2816.045z"/>
	<path style="fill:#020202;" d="M3189.63,1729.971c-13.81,0.586-27.627,0.914-41.451,0.984l-682.209,5.494
		c-73.307,0.119-146.61,0.697-219.908,1.735c-31.41,0.28-63.776-1.386-95.065,0.375c-8.286,0.467-20.676,1.643-26.723,8.085
		c-2.578,2.749-3.404,6.393-2.699,10.04c0.895,4.651,3.779,8.447,6.932,11.791c3.368,1.59,5.701,2.054,9.421,2.163
		c36.605,1.09,73.586-0.586,110.227-0.839l209.877-1.043l738.618-4.391l-0.316,25.587l-1387.635,9.013
		c-100.793,0.221-201.849,2.044-302.615,0.464l-0.316-25.877l388.64-2.294c37.345-0.259,74.691-0.315,112.038-0.168
		c17.835,0.033,36.486,1.271,54.233,0.207c5.464-0.329,9.609-0.477,13.665-4.49c3.713-3.671,5.458-11.93,4.296-16.877
		c-0.754-3.206-4.079-8.486-7.239-9.849c-4.484-1.932-9.671-2.018-14.494-2.08c-102.109-1.34-204.584,1.33-306.727,1.965
		c-83.487,0.52-167.36-1.31-250.795,1.508c-6.458,0.217-14.389,0.109-20.287,2.897c-6.554,9.128-7.41,60.125-5.211,71.837
		c1.116,5.962,3.075,9.283,7.485,13.349c22.174,5.162,114.546,1.527,142.741,1.445l350.201-1.155
		c405.793-0.123,811.57-2.455,1217.332-6.995c7.828-0.059,25.245,1.534,31.516-2.93c4.012-2.857,5.876-6.659,6.254-11.521
		c1.037-13.25,2.176-63.74-5.8-73.134C3216.495,1726.874,3199.473,1729.635,3189.63,1729.971z"/>
	<path style="fill:#020202;" d="M1969.559,2067.726c-7.476-3.223-14.698-4.385-22.77-4.786
		c-33.478-1.666-67.608-0.352-101.145-0.372l-182.374-0.431l-147.316-0.059c-26.595,0.01-54.127-1.35-80.62,0.84
		c-7.002,5.859-7.578,11.004-8.388,19.813c-5.013,54.579-2.525,111.527-3.371,166.441c-1.07,69.382-4.833,139.751-2.969,209.054
		c0.164,6.1,0.747,11.739,2.999,17.453c5.149,4.806,8.697,6.643,15.821,7.324c22.089,2.113,45.875,0.342,68.098,0.26l125.017-0.171
		l199.88,0.339c41.434,0.227,83.135,1.363,124.543,0.398c4.862-3.262,9.105-5.902,10.32-12.117
		c2.087-10.676,1.192-23.556,1.465-34.535l1.632-69.997c1.345-60.98,2.228-121.967,2.647-182.96
		c0.349-29.432,2.031-59.115,1.429-88.527C1974.293,2087.668,1973.855,2074.396,1969.559,2067.726z M1935.716,2451.142
		l-481.457-0.138c-0.148-118.99,3.861-238.101,5.283-357.094l294.431,1.241c62.993,0.352,126.327-0.688,189.271,1.705
		C1941.885,2214.72,1940.637,2333.38,1935.716,2451.142z"/>
	<path style="fill:#020202;" d="M1552.761,2152.787c-14.448-11.39-30.393-27.487-46.224-36.306c-3.664-2.041-6.271-2.005-10.3-1.781
		c-0.412,5.524-1.149,6.221,2.571,10.478c13.888,15.896,45.911,37.948,63.286,51.892c40.918,32.565,81.19,65.909,120.817,100.032
		c-22.177,18.29-173.17,137.378-179.829,149.884c0.764,4.177,0.862,4.115,4.121,6.88c12.091-1.215,165.767-129.385,187.983-147.3
		c46.556,36.286,91.305,74.902,137.638,111.508c14.543,11.492,29.314,25.508,44.746,35.525c3.842,2.492,4.395,2.538,8.7,2.018
		c1.794-1.922,3.661-3.766,5.227-5.886c-11.807-17.595-41.757-36.055-58.818-49.677c-41.892-33.442-86.572-66.643-125.59-103.288
		c24.047-19.82,178.002-141.812,184.04-152.369l-0.316-4.055c-3.618-2.976-3.93-3.052-8.611-3.417
		c-11.926,5.593-22.891,16.785-33.389,24.952c-51.881,41.01-102.795,83.188-152.741,126.535
		C1648.01,2230.221,1600.99,2190.795,1552.761,2152.787z"/>
	<path style="fill:#020202;" d="M3223.484,2077.924c-3.631-6.087-11.84-6.827-18.266-7.594c-27.724-3.315-58.042-1.096-86.098-1.182
		l-177.749-0.125l-164.974-0.267c-30.858-0.125-62.972-2.044-93.649,0.602c-4.141,4.342-5.794,6.113-6.692,12.354
		c-2.91,20.235-1.58,42.718-2.002,63.233c-0.994,46.11-1.667,92.223-2.021,138.339l-1.287,133.276
		c-0.23,16.14-2.364,32.609-1.771,48.706c0.313,8.549,1.3,15.738,6.679,22.575c5.886,2.387,12.891,2.463,19.194,2.772
		c30.163,1.481,60.771,0.685,90.983,1.158c65.213,1.236,130.431,2.119,195.653,2.65l143.551,1.36
		c28.681,0.398,57.511,1.87,86.18,1.119c4.684-2.841,8.319-3.739,9.888-9.405c4.411-15.906,2.482-98.271,2.66-122.357
		c0.672-92.013,2.844-184.398,1.922-276.385C3225.65,2085.18,3225.37,2081.081,3223.484,2077.924z M3190.055,2330.576
		c-0.695,43.88,1.475,88.866-2.475,132.555c-161.846-2.335-323.7-3.366-485.562-3.094c-0.507-119.401,4.681-239.04,6.794-358.428
		c56.208-0.566,112.627,1.212,168.865,1.57l313.909,0.908C3193.89,2179.188,3191.25,2255.403,3190.055,2330.576z"/>
	<path style="fill:#020202;" d="M3097.824,2402.805c-36.879-27.125-73.161-55.025-108.844-83.701
		c-12.752-10.415-26.864-20.719-38.527-32.253c43.58-38.837,88.392-75.692,133.905-112.238
		c17.858-14.342,36.576-27.865,54.108-42.566c4.122-3.457,7.983-6.785,10.403-11.67l-0.619-3.489
		c-2.644-1.597-4.25-1.936-7.321-2.143c-21.683,12.795-41.457,30.255-61.053,45.99c-46.629,37.428-94.446,80.554-142.102,115.494
		c-26.243-21.229-162.469-140.087-180.053-142.289c-3.901,1.132-3.565,0.247-5.823,4.065c1.297,5.408,6.406,9.303,10.435,12.887
		c16.209,14.431,34.663,26.72,51.711,40.17c38.254,30.183,77.424,62.011,112.933,95.302
		c-37.965,34.722-79.333,66.857-119.461,99.107c-17.41,13.99-37.23,27.668-52.933,43.452c-3.035,3.048-5.142,4.862-5.537,9.286
		c4.164,1.419,8.565,0.448,12.453-1.478c5.109-2.531,10.083-6.456,14.523-10.057c55.586-42.284,111.323-85.637,163.917-131.621
		c31.529,28.412,175.138,145.604,205.387,150.647l3.167-0.994l1.231-3.318C3137.537,2426.602,3113.57,2414.366,3097.824,2402.805z"
		/>
	<path style="fill:#020202;" d="M2132.278,2486.068c48.036,0.86,96.076,1.428,144.119,1.702l219.986,1.146
		c30.917,0.214,62.209,2.034,93.077,1.475c11.034-10.544,9.391-25.449,9.717-39.68c1.057-46.26,9.237-352.187,1.725-375.009
		c-4.26-3.697-7.568-4.928-13.197-5.56c-25.252-2.834-52.577-1.231-78.017-1.511l-163.452-1.399
		c-63.653-0.805-127.307-1.272-190.963-1.399c-31.15-0.227-63.99-2.558-94.933-0.382c-2.71,0.185-5.416,0.427-8.117,0.728
		c-9.155,8.954-8.542,19.919-8.661,32.02l-3.743,252.125c-0.422,28.382-5.451,106.764,1.109,129.455
		c5.293,4.536,7.163,4.526,14.132,5.128C2080.418,2487.102,2106.773,2485.779,2132.278,2486.068z M2070.319,2452.703
		c-1.294-118.18,3.578-237.157,5.764-355.347l495.855,4.944c0.132,47.31-2.225,95.002-3.101,142.342l-3.045,211.885
		c-65.215,0.998-130.583-0.579-195.811-1.224L2070.319,2452.703z"/>
	<path style="fill:#020202;" d="M2520.536,2438.577c0.622-2.373,1.471-3.394,0.293-5.771
		c-5.036-10.152-172.225-125.86-199.126-150.868c44.922-37.845,90.832-74.455,137.727-109.829
		c20.093-15.119,47.702-32.349,66.097-47.554c3.216-2.66,4.474-4.299,4.928-8.404c-2.781-3.334-5.356-3.627-9.388-4.704
		c-74.761,48.176-139.61,109.467-211.605,161.109c-49.868-33.847-97.758-71.959-145.96-108.189
		c-13.95-10.488-27.355-22.289-41.743-32.079c-3.888-2.643-7.552-4.602-12.308-4.977c-3.206,2.179-2.953,2.077-3.775,5.896
		c1.221,3.371,2.587,5.316,5.224,7.647c16.515,14.606,35.637,27.53,53.331,40.796c44.561,33.415,90.486,65.791,132.848,101.965
		c-37.801,32.594-76.286,64.36-115.454,95.298c-17.996,14.481-37.484,28.438-54.361,44.13c-3.529,3.282-6.508,5.962-8.315,10.537
		l1.554,4.421c2.86,1.35,2.337,1.83,4.914,1.004c5.172-1.652,10.011-6.264,14.273-9.566l119.27-95.193
		c16.972-13.793,33.043-29.014,50.447-42.205c25.587,19.303,192.743,143.935,208.383,147.961L2520.536,2438.577z"/>
	<path style="fill:#020202;" d="M1357.635,2087.076c-0.194-7.397-0.935-16.676-4.237-23.349c-1.383-2.788-1.629-3.572-4.697-4.605
		c-15.244-5.128-57.387-1.099-75.462-0.711l-307.882,2.409c-51.965,0.132-105.161-2.199-156.991,0.602
		c-5.109,0.273-10.06,0.76-14.089,4.319c-4.77,4.21-5.339,11.495-5.892,17.44c-2.538,27.438-1.801,56.037-2.222,83.609
		l-1.84,138.178c-0.444,50.414-4.813,109.822-2.265,159.364c0.3,5.846,0.915,11.202,3.377,16.574
		c13.888,11.739,61.011,6.215,80.199,5.922l310.656-0.941c50.141-0.112,102.106,2.634,151.938-1.001
		c7.46-0.546,16.614-0.829,22.019-6.077c2.406-6.481,2.847-12.943,3.157-19.787c3.038-67.114,1.557-135.126,2.199-202.365
		C1356.143,2200.344,1359.099,2143.277,1357.635,2087.076z M1319.558,2455.218c-134.303-0.142-268.613-3.967-402.943-1.34
		l-101.701,1.067c3.104-120.323,2.4-240.748,4.968-361.058l410.735-2.505l94.703-0.754
		C1321.846,2212.103,1323.208,2333.703,1319.558,2455.218z"/>
	<path style="fill:#020202;" d="M866.131,2114.18l-2.722,1.024c-0.56,3.601-1.037,4.892,1.481,8.009
		c7.578,9.375,41.115,32.448,52.432,41.309c47.215,36.957,95.842,73.378,140.598,113.239
		c-26.374,21.067-186.308,144.409-191.331,155.924c1.228,2.739,1.998,3.792,4.497,5.464l4.911-1.475
		c66.488-47.07,130.195-98.91,192.872-150.891l133.207,102.59c19.837,15.481,41.006,35.074,62.015,48.304
		c4.381,2.759,8.634,3.071,13.658,2.854l2.607-1.728c-0.346-1.215-0.428-2.545-1.043-3.647
		c-3.21-5.734-175.711-138.507-198.142-157.178c36.783-31.843,74.267-62.839,112.452-92.988
		c22.249-17.73,70.382-50.816,85.66-72.104c-0.625-4.131-1.629-5.079-5.501-7.341c-0.645-0.379-1.396-0.527-2.09-0.79
		c-69.652,53.041-136.977,109.858-204.772,165.263C1046.102,2249.959,881.83,2117.377,866.131,2114.18z"/>
	<path style="fill:#020202;" d="M788.358,2007.084c12.022,6.152,47.007,1.185,61.597,1.225l397.966-3.141
		c35.762-0.481,124.613,2.601,155.203-5.793c3.753-5.8,3.387-15.567,3.651-22.421c5.152-132.944,4.224-266.704,5.83-399.76
		c0.448-37.193,0.705-74.389,0.771-111.586c0.138-13.596,2.841-30.752,0.286-43.953c-1.066-5.527-3.298-9.576-7.979-12.897
		c-12.832-9.109-48.963-4.157-65.076-3.772l-360.64,3.101c-53.189,0.523-107.649-1.495-160.661,1.59
		c-8.029,0.468-21.265,1.37-27.935,6.041c-3.321,6.054-3.756,12.568-4.256,19.336c-3.917,52.982-3.532,106.942-4.546,160.075
		c-1.964,82.487-3.123,164.984-3.476,247.493c-0.151,35.503-4.016,127.002,3.601,155.253
		C783.681,2001.537,784.826,2005.277,788.358,2007.084z M819.183,1443.562c42.326-1.731,84.979-1.083,127.358-1.692l322.938-3.976
		c37.373-0.503,74.749-0.68,112.126-0.533c0.353,68.612-2.057,137.256-3.028,205.858c-1.189,109.285-3.145,218.555-5.866,327.811
		c-39.601,1.524-79.438,0.945-119.082,1.564l-327.234,3.789l-113.785,0.958C809.327,1799.314,817.29,1621.495,819.183,1443.562z"/>
	<path style="fill:#020202;" d="M3229.774,1389.115c-7.012-8.154-48.512-3.98-59.786-3.842l-1354.342,11.653
		c-37.385,0.434-317.921,0.128-331.935,6.386c-4,5.902-4.971,12.21-5.649,19.228c-3.255,33.791-0.606,69.626-1.08,103.67
		l-1.995,97.158c-0.392,18.536-2.792,39.502,0.829,57.719c0.76,3.818,0.744,5.026,3.605,7.732
		c19.438,4.53,43.159,0.395,63.223,0.276l1227.063-5.537l305.248-1.307c32.263-0.059,121.35,3.117,149.238-3.062
		c5.083-5.514,6.531-11.452,7.427-18.813c3.776-31.035,1.149-69.22,1.485-100.911l0.78-103.992
		c0.145-14.589,1.389-29.396,0.965-43.952C3234.663,1405.054,3234.11,1394.152,3229.774,1389.115z M3198.519,1647.718
		l-1614.485,8.724l-74.883,0.5l3.098-222.86l1608.619-15.89l80.327-0.319L3198.519,1647.718z"/>
</g>
</svg>
